<svg width="444" height="360" viewBox="0 0 444 360" fill="none" xmlns="http://www.w3.org/2000/svg">
<g clip-path="url(#clip0)">
<path d="M114.071 149.438C136.31 149.438 154.338 131.367 154.338 109.074C154.338 86.7821 136.31 68.7106 114.071 68.7106C91.8325 68.7106 73.8046 86.7821 73.8046 109.074C73.8046 131.367 91.8325 149.438 114.071 149.438Z" fill="#FF6B35"/>
<path d="M444 96.5896V202.754C444.001 223.33 439.958 243.706 432.103 262.716C424.247 281.727 412.734 299.001 398.219 313.551C383.704 328.101 366.472 339.642 347.507 347.516C328.543 355.39 308.216 359.443 287.689 359.442H0V253.279C0 196.548 30.0779 146.855 75.1252 119.358C82.8878 114.615 91.0512 110.565 99.5212 107.255C104.506 105.303 109.589 103.614 114.75 102.194C114.85 102.16 114.956 102.131 115.056 102.107C116.581 101.689 118.116 101.295 119.659 100.925C119.746 100.901 119.827 100.882 119.914 100.862C129.429 98.5898 139.136 97.2171 148.908 96.7626C150.063 96.7097 151.219 96.6665 152.384 96.6424C152.801 96.628 153.223 96.6184 153.65 96.6184C154.532 96.5992 155.419 96.5896 156.311 96.5896H444Z" fill="#3F3D56"/>
<path d="M207.136 291.028C92.9781 291.028 0.392693 321.886 0.00456238 360H414.268C413.879 321.886 321.294 291.028 207.136 291.028Z" fill="#F2F2F2"/>
<g opacity="0.1">
<path opacity="0.1" d="M168.778 343.284C189.962 343.284 207.136 338.502 207.136 332.603C207.136 326.705 189.962 321.923 168.778 321.923C147.593 321.923 130.419 326.705 130.419 332.603C130.419 338.502 147.593 343.284 168.778 343.284Z" fill="black"/>
</g>
<g opacity="0.1">
<path opacity="0.1" d="M251.728 324.059C272.913 324.059 290.086 319.277 290.086 313.378C290.086 307.479 272.913 302.697 251.728 302.697C230.543 302.697 213.369 307.479 213.369 313.378C213.369 319.277 230.543 324.059 251.728 324.059Z" fill="black"/>
</g>
<g opacity="0.1">
<path opacity="0.1" d="M168.778 342.216C187.844 342.216 203.3 337.912 203.3 332.603C203.3 327.294 187.844 322.991 168.778 322.991C149.711 322.991 134.255 327.294 134.255 332.603C134.255 337.912 149.711 342.216 168.778 342.216Z" fill="black"/>
</g>
<g opacity="0.1">
<path opacity="0.1" d="M251.728 322.991C270.794 322.991 286.251 318.687 286.251 313.378C286.251 308.069 270.794 303.765 251.728 303.765C232.662 303.765 217.205 308.069 217.205 313.378C217.205 318.687 232.662 322.991 251.728 322.991Z" fill="black"/>
</g>
<path d="M66.1685 142.75C68.0221 142.75 69.5248 141.244 69.5248 139.386C69.5248 137.528 68.0221 136.021 66.1685 136.021C64.3148 136.021 62.8121 137.528 62.8121 139.386C62.8121 141.244 64.3148 142.75 66.1685 142.75Z" fill="#F2F2F2"/>
<path d="M354.816 274.446C356.67 274.446 358.173 272.94 358.173 271.081C358.173 269.223 356.67 267.717 354.816 267.717C352.963 267.717 351.46 269.223 351.46 271.081C351.46 272.94 352.963 274.446 354.816 274.446Z" fill="#F2F2F2"/>
<path d="M196.587 166.302C198.441 166.302 199.944 164.795 199.944 162.937C199.944 161.079 198.441 159.573 196.587 159.573C194.734 159.573 193.231 161.079 193.231 162.937C193.231 164.795 194.734 166.302 196.587 166.302Z" fill="#F2F2F2"/>
<path d="M362.968 144.673C364.027 144.673 364.886 143.812 364.886 142.75C364.886 141.689 364.027 140.828 362.968 140.828C361.908 140.828 361.05 141.689 361.05 142.75C361.05 143.812 361.908 144.673 362.968 144.673Z" fill="#FF6B35"/>
<path d="M73.8402 240.801C74.8994 240.801 75.7581 239.94 75.7581 238.879C75.7581 237.817 74.8994 236.956 73.8402 236.956C72.7809 236.956 71.9222 237.817 71.9222 238.879C71.9222 239.94 72.7809 240.801 73.8402 240.801Z" fill="#FF6B35"/>
<path d="M45.0713 279.407H44.1977V278.531H44.027V279.407H43.1534V279.578H44.027V280.454H44.1977V279.578H45.0713V279.407Z" fill="#F2F2F2"/>
<path d="M325.568 208.272H324.694V207.397H324.524V208.272H323.65V208.443H324.524V209.319H324.694V208.443H325.568V208.272Z" fill="#F2F2F2"/>
<path d="M397.97 193.853H397.096V192.977H396.925V193.853H396.052V194.024H396.925V194.9H397.096V194.024H397.97V193.853Z" fill="#F2F2F2"/>
<path d="M242.138 232.304H241.265V231.429H241.094V232.304H240.22V232.475H241.094V233.351H241.265V232.475H242.138V232.304Z" fill="#F2F2F2"/>
<path d="M376.873 237.111H375.999V236.235H375.828V237.111H374.955V237.282H375.828V238.158H375.999V237.282H376.873V237.111Z" fill="#F2F2F2"/>
<path d="M214.328 257.778H213.455V256.903H213.284V257.778H212.41V257.949H213.284V258.825H213.455V257.949H214.328V257.778Z" fill="#F2F2F2"/>
<path d="M275.702 258.74H274.828V257.864H274.658V258.74H273.784V258.911H274.658V259.786H274.828V258.911H275.702V258.74Z" fill="#F2F2F2"/>
<path d="M46.0302 177.031H45.1566V176.155H44.9859V177.031H44.1123V177.202H44.9859V178.077H45.1566V177.202H46.0302V177.031Z" fill="#F2F2F2"/>
<path d="M325.986 110.879H324.608V138.786H325.986V110.879Z" fill="#E6E6E6"/>
<path d="M293.322 185.069L280.642 214.358L283.123 218.503L282.296 219.884L288.085 222.924V221.266L290.29 220.713L299.662 203.582L293.322 185.069Z" fill="#E6E6E6"/>
<path d="M283.398 219.608C283.398 219.608 274.026 234.253 284.501 236.463C294.976 238.674 286.431 220.989 286.431 220.989L283.398 219.608Z" fill="#E6E6E6"/>
<path d="M296.905 212.976L293.597 223.753L292.219 237.568L289.738 242.542L292.495 264.923L296.905 269.344L298.835 291.449V301.397L304.072 310.515L297.328 320.111C297.01 320.562 296.819 321.09 296.777 321.641C296.734 322.192 296.842 322.744 297.087 323.238C297.332 323.732 297.707 324.151 298.171 324.449C298.634 324.748 299.17 324.914 299.72 324.932C301.209 324.971 303.172 324.549 305.726 323.225C313.72 319.081 313.444 315.212 313.444 315.212C313.444 315.212 318.406 315.212 318.681 311.344C318.957 307.476 315.649 279.844 315.649 279.844L312.617 267.963V235.634H313.72L314.271 263.265L316.752 273.489L317.027 277.91L320.611 322.12C320.611 322.12 336.598 326.541 337.425 322.949C338.252 319.357 331.361 317.147 331.361 317.147L335.496 309.133V293.66L334.118 290.344L331.637 267.963L335.771 263.542L337.977 260.779V238.674L335.22 230.108L334.393 222.924L329.983 211.871C329.983 211.871 309.861 205.24 296.905 212.976Z" fill="white"/>
<path d="M332.739 150.53C332.739 153.853 331.952 157.129 330.443 160.089C328.934 163.048 326.746 165.606 324.058 167.552C321.371 169.499 318.261 170.778 314.984 171.285C311.707 171.791 308.357 171.511 305.209 170.467C302.062 169.423 299.206 167.645 296.877 165.279C294.549 162.913 292.814 160.027 291.815 156.858C290.816 153.689 290.581 150.327 291.131 147.05C291.68 143.772 292.998 140.672 294.976 138.004L294.981 137.999C297.609 134.456 301.284 131.833 305.484 130.503C309.683 129.173 314.195 129.205 318.376 130.592C322.557 131.98 326.195 134.653 328.774 138.232C331.352 141.812 332.74 146.115 332.739 150.53Z" fill="#1A659E"/>
<g opacity="0.1">
<path opacity="0.1" d="M329.762 141.823L328.053 151.635C315.211 118.218 294.783 138.745 294.43 139.104C296.541 136.258 299.337 133.994 302.557 132.524C305.777 131.054 309.316 130.425 312.844 130.697C316.372 130.968 319.774 132.131 322.732 134.077C325.69 136.022 328.109 138.687 329.762 141.823Z" fill="black"/>
</g>
<path d="M330.314 140.718L328.605 150.53C315.762 117.112 295.334 137.64 294.981 137.999C297.092 135.153 299.889 132.889 303.108 131.419C306.328 129.949 309.867 129.32 313.395 129.591C316.923 129.863 320.325 131.026 323.283 132.971C326.242 134.917 328.66 137.582 330.314 140.718Z" fill="white"/>
<path d="M327.442 136.575L330.314 146.568C330.314 146.568 324.352 164.478 296.709 165.103L295.803 167.661L292.77 168.49L291.392 174.293L295.251 211.042C295.251 211.042 293.597 214.634 296.354 214.358C296.354 214.358 314.547 208.279 330.258 213.805C330.258 213.805 333.566 215.187 332.739 212.147C332.739 212.147 343.765 205.24 342.938 198.056C342.111 190.871 343.765 157.437 343.765 157.437C343.765 157.437 345.419 147.766 340.457 145.556C340.457 145.556 333.17 135.332 327.442 136.575Z" fill="white"/>
<path d="M321.399 206.396C321.399 206.396 304.129 208.134 308.909 217.735C313.69 227.335 322.203 209.636 322.203 209.636L321.399 206.396Z" fill="#E6E6E6"/>
<path d="M330.258 163.516C330.258 163.516 327.226 167.108 328.329 172.911C329.432 178.714 333.566 191.7 333.566 191.7L318.957 205.24L323.367 211.319L343.214 201.095L347.624 198.332C346.528 187.156 343.799 176.202 339.525 165.821L338.803 164.069C338.803 164.069 333.566 161.858 330.258 163.516Z" fill="#E6E6E6"/>
<path d="M328.88 153.707C331.697 153.707 333.98 151.419 333.98 148.595C333.98 145.772 331.697 143.484 328.88 143.484C326.064 143.484 323.781 145.772 323.781 148.595C323.781 151.419 326.064 153.707 328.88 153.707Z" fill="#E6E6E6"/>
<path d="M325.297 114.471C327.352 114.471 329.018 112.801 329.018 110.74C329.018 108.68 327.352 107.01 325.297 107.01C323.242 107.01 321.576 108.68 321.576 110.74C321.576 112.801 323.242 114.471 325.297 114.471Z" fill="#E6E6E6"/>
<path d="M230.631 169.34H229.757V168.465H229.586V169.34H228.713V169.511H229.586V170.387H229.757V169.511H230.631V169.34Z" fill="#F2F2F2"/>
<path d="M309.266 142.424H308.392V141.549H308.221V142.424H307.348V142.596H308.221V143.471H308.392V142.596H309.266V142.424Z" fill="#F2F2F2"/>
<path d="M300.635 150.595H299.761V149.72H299.591V150.595H298.717V150.766H299.591V151.642H299.761V150.766H300.635V150.595Z" fill="#F2F2F2"/>
<path d="M266.592 130.254C267.651 130.254 268.51 129.393 268.51 128.331C268.51 127.269 267.651 126.409 266.592 126.409C265.533 126.409 264.674 127.269 264.674 128.331C264.674 129.393 265.533 130.254 266.592 130.254Z" fill="#F2F2F2"/>
<path d="M172.114 141.883C172.114 276.002 155.289 276.002 134.542 276.002C123.815 276.002 114.138 276.002 107.295 257.476C105.327 252.151 103.589 245.286 102.132 236.448C98.8511 216.581 96.9696 186.727 96.9696 141.882C96.9696 124.638 99.006 107.733 102.132 91.9433C103.635 84.3417 105.39 77.0047 107.295 70.0068C109.624 61.4393 112.176 53.3834 114.752 46.0119C116.478 41.0553 118.222 36.4035 119.914 32.1082C127.733 12.2821 134.542 -1.52588e-05 134.542 -1.52588e-05C134.542 -1.52588e-05 172.114 67.8103 172.114 141.883Z" fill="#F2F2F2"/>
<g opacity="0.1">
<path opacity="0.1" d="M119.914 32.1082V265.94H114.752V46.0119C116.478 41.0554 118.222 36.4036 119.914 32.1082Z" fill="black"/>
</g>
<path d="M133.394 113.276C144.799 113.276 154.045 104.008 154.045 92.5758C154.045 81.1434 144.799 71.8756 133.394 71.8756C121.99 71.8756 112.744 81.1434 112.744 92.5758C112.744 104.008 121.99 113.276 133.394 113.276Z" fill="#3F3D56"/>
<path d="M178.71 263.352C174.119 252.023 168.223 250.068 164.37 250.238V248.402H104.14V250.238C100.286 250.068 94.3909 252.023 89.7994 263.352C82.3424 281.753 94.3884 313.378 94.3884 313.378C94.3884 313.378 87.9508 269.271 109.328 268.981C111.18 271.401 113.451 273.467 116.035 275.08V286.943H150.557V276.16C153.932 274.444 156.879 271.991 159.182 268.981C180.559 269.271 174.121 313.378 174.121 313.378C174.121 313.378 186.167 281.753 178.71 263.352Z" fill="#1A659E"/>
<path d="M133.394 108.676C142.265 108.676 149.456 101.468 149.456 92.5758C149.456 83.684 142.265 76.4757 133.394 76.4757C124.524 76.4757 117.333 83.684 117.333 92.5758C117.333 101.468 124.524 108.676 133.394 108.676Z" fill="#1A659E"/>
<path d="M405.646 96.5896H404.687C404.756 107 408.927 116.961 416.291 124.302C423.655 131.643 433.615 135.769 444 135.781V134.82C433.869 134.809 424.152 130.784 416.968 123.623C409.784 116.462 405.714 106.745 405.646 96.5896Z" fill="#1A659E"/>
<path d="M387.905 96.5896H386.946C387.019 111.715 393.061 126.197 403.751 136.873C414.441 147.548 428.911 153.549 444 153.565V152.603C429.165 152.587 414.94 146.687 404.43 136.192C393.92 125.697 387.979 111.46 387.905 96.5896Z" fill="#1A659E"/>
<path d="M369.68 96.5896H368.721C368.841 138.098 402.563 171.829 444 171.829V170.868C403.091 170.868 369.8 137.569 369.68 96.5896Z" fill="#1A659E"/>
</g>
<defs>
<clipPath id="clip0">
<rect width="444" height="360" fill="white"/>
</clipPath>
</defs>
</svg>
